<?xml version="1.0" standalone="no"?>
<!DOCTYPE svg PUBLIC "-//W3C//DTD SVG 20010904//EN"
 "http://www.w3.org/TR/2001/REC-SVG-20010904/DTD/svg10.dtd">
<svg version="1.0" xmlns="http://www.w3.org/2000/svg"
 width="1024.000000pt" height="1024.000000pt" viewBox="0 0 1024.000000 1024.000000"
 preserveAspectRatio="xMidYMid meet">
<metadata>
Created by potrace 1.11, written by Peter Selinger 2001-2013
</metadata>
<g transform="translate(0.000000,1024.000000) scale(0.100000,-0.100000)"
fill="#000000" stroke="none">
<path d="M619 9918 c-1 -178 0 -327 1 -333 2 -13 2 -207 0 -220 -1 -5 -1 -14
0 -20 2 -14 3 -118 0 -130 -1 -5 -1 -14 0 -20 1 -5 1 -24 0 -41 -1 -28 2 -32
29 -36 17 -3 31 -1 31 4 0 5 8 5 18 0 9 -4 35 -7 57 -5 49 4 40 4 153 1 50 -2
92 1 92 5 0 4 8 4 18 -1 9 -4 35 -7 57 -5 48 4 33 4 180 0 66 -1 130 1 143 5
13 4 21 5 19 0 -3 -4 10 -7 29 -7 19 0 34 4 34 8 0 5 6 5 13 0 18 -11 101 -10
109 2 5 7 8 7 8 0 0 -12 261 -12 280 0 7 5 11 4 7 -1 -3 -5 26 -8 66 -7 84 3
66 3 237 0 74 -1 145 1 158 5 13 4 21 5 19 0 -3 -4 10 -7 29 -7 19 0 34 4 34
8 0 5 6 5 13 0 18 -11 101 -10 109 2 5 7 8 7 8 0 0 -12 261 -12 280 0 7 5 11
4 7 -1 -3 -5 26 -8 66 -7 84 3 66 3 237 0 74 -1 145 1 158 5 13 4 21 5 19 0
-3 -4 10 -7 29 -7 19 0 34 4 34 8 0 5 6 5 13 0 18 -11 101 -10 109 2 5 7 8 7
8 0 0 -12 261 -12 280 0 7 5 11 4 8 -1 -4 -5 9 -9 28 -9 19 0 34 4 34 8 0 4 8
4 18 -1 9 -4 35 -7 57 -5 49 4 40 4 153 1 50 -2 92 1 92 5 0 4 8 4 18 -1 9 -4
35 -7 57 -5 49 4 40 4 153 1 50 -2 92 1 92 5 0 4 8 4 18 -1 9 -4 35 -7 57 -5
49 4 40 4 153 1 50 -2 92 1 92 5 0 4 8 4 18 -1 9 -4 35 -7 57 -5 48 4 33 4
180 0 66 -1 130 1 143 5 13 4 21 5 19 0 -3 -4 10 -7 29 -7 19 0 34 4 34 8 0 5
6 5 13 0 18 -11 101 -10 109 2 5 7 8 7 8 0 0 -12 261 -12 280 0 7 5 11 4 7 -1
-3 -5 26 -8 66 -7 84 3 66 3 237 0 74 -1 145 1 158 5 13 4 21 5 19 0 -3 -4 10
-7 29 -7 19 0 34 4 34 8 0 5 6 5 13 0 18 -11 101 -10 109 2 5 7 8 7 8 0 0 -12
261 -12 280 0 7 5 11 4 7 -1 -3 -5 26 -8 66 -7 84 3 66 3 237 0 74 -1 145 1
158 5 13 4 21 5 19 0 -3 -4 10 -7 29 -7 19 0 34 4 34 8 0 5 6 5 13 0 18 -11
101 -10 109 2 5 7 8 7 8 0 0 -12 261 -12 280 0 7 5 11 4 7 -1 -3 -5 10 -9 29
-9 19 0 34 4 34 8 0 4 8 4 18 -1 9 -4 35 -7 57 -5 49 4 40 4 153 1 50 -2 92 1
92 5 0 4 8 4 18 -1 9 -4 35 -7 57 -5 49 4 40 4 153 1 50 -2 92 1 92 5 0 4 8 4
18 -1 9 -4 35 -7 57 -5 49 4 40 4 153 1 50 -2 92 1 92 5 0 4 8 4 18 -1 9 -4
35 -7 57 -5 48 4 33 4 180 0 66 -1 130 1 143 5 13 4 21 5 19 0 -3 -4 18 -7 46
-6 l52 0 1 352 1 351 -211 210 -210 211 -4078 0 -4078 0 -1 -322z"/>
<path d="M619 8406 c-1 -6 -1 -15 0 -20 1 -5 1 -165 1 -355 -1 -190 -2 -350
-1 -356 2 -35 2 -222 1 -230 -1 -5 -1 -14 0 -20 1 -5 2 -37 2 -70 l1 -60 4286
0 4286 0 1 350 1 350 -209 210 -209 210 -4079 1 c-2922 0 -4080 -2 -4081 -10z"/>
<path d="M642 6592 c-20 -3 -22 -8 -19 -53 1 -28 -1 -52 -4 -55 -4 -2 -4 -17
1 -33 4 -16 6 -31 4 -33 -3 -4 -5 -413 -3 -788 0 -52 0 -99 -1 -105 -1 -5 -1
-14 0 -20 2 -14 3 -118 0 -130 -1 -5 -1 -12 0 -15 5 -15 4 -73 -2 -76 -4 -3
-5 -11 -2 -19 10 -26 9 -185 -1 -189 -10 -4 80 -94 171 -171 26 -22 65 -56 88
-76 23 -20 56 -49 75 -65 19 -16 48 -42 66 -59 18 -16 54 -48 79 -69 26 -21
60 -51 75 -65 15 -14 52 -46 81 -71 29 -25 70 -59 89 -77 20 -18 45 -40 56
-50 80 -70 164 -143 189 -164 15 -13 45 -39 65 -57 20 -19 50 -45 67 -58 l31
-24 119 68 c65 37 151 83 189 102 39 19 73 38 76 43 3 5 9 8 13 8 3 -1 41 15
83 35 43 20 112 51 153 69 41 18 95 41 120 53 25 11 108 45 185 75 182 71 178
70 190 73 6 1 57 19 115 39 58 21 113 39 124 41 10 2 24 8 32 15 8 6 14 9 14
6 0 -3 16 1 35 9 19 8 35 12 35 10 0 -3 38 8 85 24 47 16 85 27 85 25 0 -3 11
0 25 5 21 8 234 66 270 74 27 6 131 29 140 31 6 1 21 5 35 8 14 4 36 9 50 11
14 2 59 11 100 20 41 8 93 18 115 21 22 4 51 9 65 11 14 3 39 7 55 9 17 2 44
7 60 10 17 4 46 8 65 10 19 3 49 6 65 9 62 10 160 21 280 31 39 4 81 8 95 10
104 16 809 27 938 14 23 -2 42 0 42 4 0 5 4 6 9 3 5 -3 46 -8 92 -11 99 -6
180 -13 229 -20 19 -3 60 -8 90 -10 30 -3 69 -7 85 -9 17 -2 50 -7 75 -10 44
-6 82 -12 138 -20 50 -8 236 -47 297 -63 33 -8 65 -16 70 -18 48 -11 83 -21
165 -46 52 -17 104 -34 115 -39 11 -5 47 -18 80 -30 148 -53 494 -231 525
-270 3 -3 21 -17 40 -30 19 -13 40 -29 46 -35 7 -5 31 -26 55 -45 94 -76 259
-254 259 -279 0 -6 4 -11 9 -11 5 0 20 -17 32 -37 13 -21 27 -39 31 -41 4 -2
8 -12 8 -23 0 -10 4 -19 8 -19 8 0 96 -163 98 -179 0 -3 7 -22 16 -41 16 -37
51 -145 64 -195 68 -275 77 -593 22 -835 -5 -25 -12 -54 -14 -66 -5 -26 -52
-172 -63 -199 -73 -164 -167 -321 -247 -416 -43 -51 -221 -229 -229 -229 -4 0
-19 -12 -35 -27 -31 -31 -33 -33 -140 -103 -41 -27 -80 -53 -86 -57 -22 -17
-296 -160 -309 -162 -3 0 -22 -8 -43 -17 -93 -40 -130 -52 -136 -47 -3 4 -6 2
-6 -4 0 -5 -6 -10 -12 -11 -7 0 -53 -14 -103 -32 -49 -17 -97 -32 -105 -34 -8
-1 -40 -10 -70 -19 -30 -9 -66 -19 -80 -21 -14 -3 -26 -5 -27 -7 -5 -3 -95
-21 -110 -21 -5 0 -15 -4 -23 -8 -9 -5 -36 -11 -60 -15 -25 -4 -47 -8 -50 -10
-3 -2 -29 -6 -59 -10 -30 -4 -62 -8 -72 -10 -9 -2 -39 -7 -66 -11 -26 -3 -57
-8 -68 -10 -31 -6 -283 -33 -355 -39 -188 -14 -345 -19 -630 -19 -338 1 -470
6 -710 29 -152 14 -177 16 -205 20 -33 4 -123 15 -170 20 -16 2 -41 6 -55 9
-14 3 -51 7 -83 10 -32 3 -62 8 -67 11 -4 3 -25 7 -46 9 -22 3 -50 7 -64 10
-14 4 -38 8 -55 10 -16 2 -41 7 -55 10 -14 3 -37 8 -52 11 -16 3 -40 7 -55 10
-16 3 -39 8 -53 12 -14 3 -32 7 -40 9 -69 13 -78 15 -210 49 -58 15 -121 30
-140 35 -60 14 -153 40 -200 56 -25 9 -54 18 -64 20 -19 3 -136 40 -166 51 -8
3 -21 7 -27 9 -12 2 -117 40 -188 67 -16 7 -32 12 -35 13 -3 0 -18 6 -33 12
-16 7 -33 12 -38 12 -5 0 -17 4 -27 9 -25 13 -55 26 -172 75 -58 24 -130 54
-160 67 -90 38 -427 208 -526 266 -51 29 -98 53 -103 53 -6 0 -11 5 -11 10 0
6 -18 17 -40 26 -22 9 -40 20 -40 25 0 5 -5 9 -10 9 -10 0 -215 135 -237 156
-7 7 -29 22 -48 34 -35 22 -37 22 -50 4 -7 -11 -21 -29 -31 -41 -27 -31 -64
-76 -136 -168 -34 -44 -67 -85 -73 -91 -5 -6 -21 -26 -35 -44 -14 -18 -33 -42
-43 -54 -10 -11 -28 -34 -40 -49 -12 -15 -30 -38 -41 -50 -10 -12 -30 -38 -45
-57 -14 -19 -34 -44 -44 -55 -10 -11 -27 -32 -38 -47 l-19 -26 41 -34 c23 -18
52 -43 65 -55 13 -13 26 -23 29 -23 4 0 13 -7 22 -16 51 -50 458 -335 467
-326 3 3 6 1 6 -5 0 -5 22 -22 49 -36 27 -15 54 -34 61 -42 7 -8 16 -13 20
-10 4 3 13 -2 20 -10 7 -8 19 -15 26 -15 8 0 14 -4 14 -9 0 -5 8 -11 18 -14 9
-4 35 -17 57 -31 22 -14 56 -34 75 -44 19 -10 51 -28 70 -39 19 -11 71 -39
115 -63 44 -23 85 -47 91 -51 6 -5 13 -7 16 -4 3 3 11 -1 18 -10 7 -8 17 -15
22 -15 5 0 64 -27 131 -59 123 -59 203 -96 267 -124 19 -8 60 -26 90 -39 30
-14 73 -31 95 -38 22 -7 45 -16 50 -20 6 -4 48 -21 95 -38 47 -16 96 -35 110
-40 22 -9 55 -22 70 -27 3 -1 12 -4 20 -8 45 -17 294 -97 350 -112 36 -9 72
-20 80 -23 8 -3 18 -6 23 -7 4 -2 8 -3 10 -5 1 -1 9 -3 17 -5 8 -1 35 -8 60
-16 25 -7 53 -14 62 -16 10 -1 50 -12 90 -22 40 -11 84 -22 98 -25 14 -3 68
-14 120 -26 52 -12 106 -24 120 -26 14 -2 45 -8 70 -14 25 -5 63 -12 85 -16
22 -4 42 -8 45 -9 3 0 28 -4 55 -9 94 -14 110 -17 165 -26 30 -5 78 -12 105
-15 91 -9 160 -17 190 -21 17 -2 59 -6 95 -9 36 -2 88 -7 115 -10 139 -14 290
-19 600 -19 337 -1 534 7 730 29 22 3 63 7 90 10 128 12 362 47 445 65 25 6
61 12 80 14 19 3 35 5 35 6 0 2 40 11 120 25 17 4 66 15 110 26 44 11 87 22
95 24 8 2 58 15 110 29 52 15 102 28 110 30 8 3 15 5 15 6 0 1 8 3 17 5 16 3
166 50 198 62 30 11 145 54 155 57 6 1 21 8 35 13 14 6 59 24 100 41 148 59
381 170 392 186 4 6 8 8 8 4 0 -18 395 227 525 325 59 45 77 60 163 131 193
160 401 388 535 591 26 39 51 75 57 82 5 6 24 38 40 70 17 32 42 77 55 101 13
23 20 42 17 42 -4 0 -2 4 4 8 5 4 20 32 33 62 13 30 32 75 43 100 11 24 21 49
23 55 1 5 5 17 8 25 18 47 64 196 73 235 19 88 37 175 39 195 2 14 4 25 5 25
1 0 3 14 5 30 1 17 7 64 11 105 16 142 10 524 -10 640 -3 14 -7 41 -10 60 -3
19 -9 49 -12 65 -3 17 -7 39 -9 50 -1 11 -3 20 -5 20 -1 0 -4 14 -6 30 -12 75
-94 329 -139 430 -8 17 -14 35 -15 40 -1 6 -7 17 -15 25 -7 8 -16 26 -20 40
-8 24 -113 220 -124 230 -8 7 -29 41 -38 60 -4 8 -12 20 -17 27 -29 32 -36 43
-36 49 0 3 -11 20 -25 38 -14 17 -29 36 -33 41 -76 105 -278 319 -397 422
-100 86 -103 89 -130 109 -15 10 -38 29 -53 41 -14 12 -65 48 -112 80 -47 32
-86 61 -88 66 -2 4 -8 7 -14 7 -5 0 -29 14 -53 30 -24 17 -48 30 -54 30 -6 0
-11 5 -11 10 0 6 -4 10 -10 10 -5 0 -33 14 -62 31 -84 50 -319 169 -334 169
-8 0 -14 4 -14 9 0 5 -10 11 -22 14 -13 3 -90 33 -173 67 -142 58 -269 106
-308 115 -20 4 -184 54 -207 63 -8 3 -19 6 -25 7 -5 2 -75 19 -153 39 -79 20
-148 34 -152 31 -5 -3 -10 -1 -12 5 -1 5 -21 11 -43 13 -22 1 -45 5 -50 9 -6
3 -31 8 -56 12 -49 7 -83 13 -126 21 -67 13 -213 34 -256 37 -26 2 -47 6 -47
9 0 3 -12 6 -27 6 -16 0 -59 3 -98 7 -130 13 -180 17 -235 20 -30 2 -55 4 -55
5 0 8 -588 13 -705 6 -211 -13 -237 -15 -360 -31 -30 -3 -68 -8 -85 -9 -16 -2
-30 -4 -30 -5 0 -2 -31 -7 -85 -14 -25 -3 -81 -12 -125 -20 -44 -9 -93 -18
-110 -21 -16 -3 -51 -10 -76 -16 -26 -6 -53 -12 -60 -13 -13 -3 -83 -18 -101
-22 -5 -1 -9 -2 -10 -4 -2 -1 -11 -3 -20 -6 -10 -2 -24 -6 -30 -7 -7 -2 -31
-7 -53 -12 -22 -4 -47 -11 -56 -16 -9 -4 -29 -11 -45 -14 -34 -7 -42 -9 -69
-17 -11 -4 -81 -25 -155 -48 -158 -49 -418 -141 -507 -181 -24 -11 -45 -19
-48 -19 -3 0 -24 -8 -48 -19 -23 -10 -71 -31 -107 -46 -36 -15 -91 -40 -122
-56 -32 -15 -58 -26 -58 -24 0 4 -392 -194 -487 -246 -34 -19 -90 -49 -125
-68 -35 -18 -74 -42 -87 -52 -13 -11 -30 -19 -37 -19 -8 0 -14 -4 -14 -10 0
-5 -4 -10 -10 -10 -5 0 -37 -18 -72 -39 -34 -22 -64 -38 -67 -36 -3 2 -6 252
-6 556 l1 552 -211 211 -211 210 -400 1 c-219 0 -409 -1 -422 -3z"/>
</g>
</svg>
