<svg width="29" height="32" viewBox="0 0 29 32" fill="none" xmlns="http://www.w3.org/2000/svg">
<g clip-path="url(#clip0)">
<path d="M27.2424 3.50685H0.439392V0H25.9242L27.2424 1.31507V3.50685Z" fill="#4730D2"/>
<path d="M27.2424 9.20558H0.439392V5.69873H25.9242L27.2424 7.0138V9.20558Z" fill="#4730D2"/>
<path d="M0.439394 11.3972H3.07576L4.39394 12.7123V17.9726L3.07576 17.0958C3.07576 17.0958 8.7332 12.7123 15.3788 12.7123C22.7938 12.7123 29 16.2191 29 22.3561C29 28.4931 22.4091 32 14.9941 32C5.71212 32 0 26.7397 0 26.7397L1.75758 24.5479C1.75758 24.5479 6.59091 28.4931 14.9941 28.4931C21.9697 28.4931 25.0464 25.863 25.0455 22.3561C25.0445 18.8493 22.3544 16.2191 15.3788 16.2191C8.7332 16.2191 3.95455 19.2876 3.95455 19.2876L0.439394 16.2191V11.3972Z" fill="#1F155B"/>
</g>
<defs>
<clipPath id="clip0">
<rect width="29" height="32" fill="white"/>
</clipPath>
</defs>
</svg>
