<?xml version="1.0" encoding="UTF-8"?>
<svg width="42px" height="17px" viewBox="0 0 42 17" version="1.1" xmlns="http://www.w3.org/2000/svg" xmlns:xlink="http://www.w3.org/1999/xlink">
    <!-- Generator: Sketch 58 (84663) - https://sketch.com -->
    <title>nav-icon-2-top</title>
    <desc>Created with Sketch.</desc>
    <g id="Page-1" stroke="none" stroke-width="1" fill="none" fill-rule="evenodd">
        <g id="nav-icon-2-top" fill="#47CE7D" fill-rule="nonzero">
            <path d="M1.648,16.7808 C1.2166,17.1259 0.587451,17.056 0.24248,16.6248 C-0.102735,16.1935 -0.0326667,15.5642 0.398486,15.2192 C4.06165,12.2882 8.36396,10.1214 13.0623,8.96113 C16.371,8.14402 18.0253,7.73546 18.8076,6.96459 C19.091,6.68532 19.236,6.50011 19.4392,6.158 C20,5.21372 20,3.80914 20,0.999999083 C20,0.447707 20.4478,-9.16927e-07 21,-9.16927e-07 C21.5523,-9.16927e-07 22,0.447707 22,0.999999083 C22,3.80914 22,5.21371 22.5609,6.15799 C22.7641,6.5001 22.9091,6.68531 23.1925,6.96459 C23.9748,7.73545 25.6291,8.144 28.9378,8.96111 C33.6362,10.1214 37.9384,12.2882 41.6016,15.2192 C42.033,15.5642 42.1028,16.1935 41.7579,16.6248 C41.4126,17.056 40.7835,17.1259 40.3521,16.7808 C35.0484,12.5371 28.3218,9.99999908 21,9.99999908 C13.6783,9.99999908 6.95195,12.5371 1.648,16.7808 Z" id="Path"></path>
        </g>
    </g>
</svg>