<svg width="42" height="17" viewBox="0 0 42 17" fill="none" xmlns="http://www.w3.org/2000/svg">
<path d="M1.648 0.219177C1.2166 -0.12587 0.587449 -0.0559845 0.242478 0.375244C-0.102736 0.806488 -0.0326681 1.43579 0.398484 1.78082C4.06165 4.71181 8.36396 6.87856 13.0623 8.03886C16.371 8.85598 18.0253 9.26454 18.8076 10.0354C19.091 10.3147 19.236 10.4999 19.4392 10.842C20 11.7863 20 13.1909 20 16C20 16.5523 20.4478 17 21 17C21.5523 17 22 16.5523 22 16C22 13.1909 22 11.7863 22.5609 10.842C22.7641 10.4999 22.9091 10.3147 23.1925 10.0354C23.9748 9.26455 25.6291 8.85599 28.9378 8.03889C33.6362 6.87859 37.9384 4.71183 41.6016 1.78082C42.033 1.43579 42.1028 0.806486 41.7579 0.375242C41.4126 -0.0559863 40.7835 -0.125872 40.3521 0.219175C35.0484 4.46293 28.3218 7 21 7C13.6783 7 6.95195 4.46294 1.648 0.219177Z" fill="#7BAAF1"/>
</svg>
