<?xml version="1.0" encoding="UTF-8"?>
<svg width="42px" height="17px" viewBox="0 0 42 17" version="1.1" xmlns="http://www.w3.org/2000/svg" xmlns:xlink="http://www.w3.org/1999/xlink">
    <!-- Generator: Sketch 58 (84663) - https://sketch.com -->
    <title>nav-icon-3-bottom</title>
    <desc>Created with Sketch.</desc>
    <g id="Page-1" stroke="none" stroke-width="1" fill="none" fill-rule="evenodd">
        <g id="nav-icon-3-bottom" fill="#7BAAF1" fill-rule="nonzero">
            <path d="M1.648,0.219177 C1.2166,-0.12587 0.587449,-0.0559845 0.242478,0.375244 C-0.102736,0.806488 -0.0326681,1.43579 0.398484,1.78082 C4.06165,4.71181 8.36396,6.87856 13.0623,8.03886 C16.371,8.85598 18.0253,9.26454 18.8076,10.0354 C19.091,10.3147 19.236,10.4999 19.4392,10.842 C20,11.7863 20,13.1909 20,16 C20,16.5523 20.4478,17 21,17 C21.5523,17 22,16.5523 22,16 C22,13.1909 22,11.7863 22.5609,10.842 C22.7641,10.4999 22.9091,10.3147 23.1925,10.0354 C23.9748,9.26455 25.6291,8.85599 28.9378,8.03889 C33.6362,6.87859 37.9384,4.71183 41.6016,1.78082 C42.033,1.43579 42.1028,0.806486 41.7579,0.375242 C41.4126,-0.0559863 40.7835,-0.125872 40.3521,0.219175 C35.0484,4.46293 28.3218,7 21,7 C13.6783,7 6.95195,4.46294 1.648,0.219177 Z" id="Path"></path>
        </g>
    </g>
</svg>