<?xml version="1.0" encoding="UTF-8"?>
<svg width="136px" height="124px" viewBox="0 0 136 124" version="1.1" xmlns="http://www.w3.org/2000/svg" xmlns:xlink="http://www.w3.org/1999/xlink">
    <!-- Generator: Sketch 58 (84663) - https://sketch.com -->
    <title>triangle-1</title>
    <desc>Created with Sketch.</desc>
    <defs>
        <linearGradient x1="50.000004%" y1="100%" x2="50.000004%" y2="-19.5378087%" id="linearGradient-1">
            <stop stop-color="#FFFFFF" stop-opacity="0" offset="0%"></stop>
            <stop stop-color="#FFFFFF" stop-opacity="0.36" offset="100%"></stop>
        </linearGradient>
        <linearGradient x1="49.999955%" y1="-20.1040549%" x2="49.999955%" y2="100.407132%" id="linearGradient-2">
            <stop stop-color="#FFFFFF" stop-opacity="0.48" offset="0%"></stop>
            <stop stop-color="#FFFFFF" stop-opacity="0" offset="100%"></stop>
        </linearGradient>
    </defs>
    <g id="Page-1" stroke="none" stroke-width="1" fill="none" fill-rule="evenodd">
        <g id="triangle-1">
            <path d="M34.7011,33.9793 C45.6209,14.9659 51.0809,5.4592 58.2184,2.2736 C64.4435,-0.5048 71.5565,-0.5048 77.782,2.2736 C84.919,5.4592 90.379,14.9659 101.299,33.9793 L119.962,66.4757 C130.808,85.3596 136.231,94.802 135.404,102.547 C134.683,109.302 131.133,115.436 125.633,119.426 C119.329,124 108.44,124 86.663,124 L49.3366,124 C27.5597,124 16.6713,124 10.3668,119.426 C4.8674,115.436 1.3168,109.302 0.5959,102.547 C-0.2306,94.802 5.1921,85.3596 16.0376,66.4756 L34.7011,33.9793 Z" id="Path" fill="#B4B3B5" fill-rule="nonzero"></path>
            <path d="M34.7011,33.9793 C45.6209,14.9659 51.0809,5.4592 58.2184,2.2736 C64.4435,-0.5048 71.5565,-0.5048 77.782,2.2736 C84.919,5.4592 90.379,14.9659 101.299,33.9793 L119.962,66.4757 C130.808,85.3596 136.231,94.802 135.404,102.547 C134.683,109.302 131.133,115.436 125.633,119.426 C119.329,124 108.44,124 86.663,124 L49.3366,124 C27.5597,124 16.6713,124 10.3668,119.426 C4.8674,115.436 1.3168,109.302 0.5959,102.547 C-0.2306,94.802 5.1921,85.3596 16.0376,66.4756 L34.7011,33.9793 Z" id="Path" fill="url(#linearGradient-1)" fill-rule="nonzero"></path>
            <path d="M35.1347,34.2283 C40.5995,24.713 44.6813,17.6069 48.2871,12.4786 C51.8945,7.348 54.9796,4.2666 58.4222,2.7302 C64.5176,0.0097 71.4824,0.0097 77.578,2.7302 C81.02,4.2666 84.105,7.348 87.713,12.4786 C91.319,17.6069 95.4,24.7131 100.865,34.2283 L119.529,66.7247 C124.956,76.1752 129.01,83.2333 131.606,88.897 C134.203,94.562 135.306,98.758 134.907,102.494 C134.201,109.109 130.724,115.115 125.34,119.021 C122.299,121.228 118.111,122.361 111.905,122.93 C105.701,123.5 97.562,123.5 86.663,123.5 L49.3366,123.5 C38.4383,123.5 30.2993,123.5 24.0952,122.93 C17.8887,122.361 13.7014,121.228 10.6604,119.021 C5.2756,115.115 1.7989,109.109 1.093,102.494 C0.6944,98.758 1.797,94.562 4.3943,88.897 C6.9905,83.2333 11.0436,76.1752 16.4712,66.7246 L35.1347,34.2283 Z" id="Path" stroke="url(#linearGradient-2)"></path>
        </g>
    </g>
</svg>