<svg width="956" height="208" viewBox="0 0 956 208" fill="none" xmlns="http://www.w3.org/2000/svg">
<mask id="mask0" mask-type="alpha" maskUnits="userSpaceOnUse" x="159" y="3" width="639" height="178">
<path d="M207.672 64.75C210.547 64.75 212.953 63.9531 214.891 62.3594C216.859 60.7656 217.844 58.7969 217.844 56.4531C217.844 54.5781 217.203 52.9844 215.922 51.6719C214.672 50.3594 213.016 49.1875 210.953 48.1562C208.891 47.0938 206.656 46.0625 204.25 45.0625C201.875 44.0625 199.484 42.9844 197.078 41.8281C194.703 40.6406 192.516 39.25 190.516 37.6562C188.516 36.0625 186.906 34.1406 185.688 31.8906C184.469 29.6406 183.859 26.9375 183.859 23.7812C183.859 19.875 184.844 16.4688 186.812 13.5625C188.781 10.625 191.547 8.34375 195.109 6.71875C198.672 5.09375 202.812 4.28125 207.531 4.28125C215.062 4.28125 222.281 6.15625 229.188 9.90625L223.281 21.9062C220.219 19.9688 217.297 18.6563 214.516 17.9688C211.734 17.2812 209.422 16.9375 207.578 16.9375C204.797 16.9375 202.562 17.5313 200.875 18.7188C199.219 19.875 198.391 21.4219 198.391 23.3594C198.391 25.0156 198.984 26.4375 200.172 27.625C201.359 28.8125 202.922 29.875 204.859 30.8125C206.828 31.75 208.969 32.7031 211.281 33.6719C213.688 34.6719 216.125 35.7656 218.594 36.9531C221.062 38.1406 223.344 39.5625 225.438 41.2188C227.531 42.875 229.203 44.875 230.453 47.2188C231.734 49.5625 232.375 52.3906 232.375 55.7031C232.375 59.9219 231.297 63.6719 229.141 66.9531C226.984 70.2031 224.016 72.7656 220.234 74.6406C216.453 76.4844 212.109 77.4062 207.203 77.4062C202.672 77.4062 198.125 76.6094 193.562 75.0156C189 73.3906 184.828 71.1094 181.047 68.1719L187.797 56.7344C189.547 58.2656 191.562 59.6406 193.844 60.8594C196.125 62.0781 198.469 63.0312 200.875 63.7188C203.312 64.4062 205.578 64.75 207.672 64.75ZM241.234 13.1875C241.234 10.9375 241.922 9.125 243.297 7.75C244.672 6.375 246.484 5.6875 248.734 5.6875C250.984 5.6875 252.797 6.375 254.172 7.75C255.547 9.125 256.234 10.9375 256.234 13.1875C256.234 15.4375 255.547 17.25 254.172 18.625C252.797 20 250.984 20.6875 248.734 20.6875C246.484 20.6875 244.672 20 243.297 18.625C241.922 17.25 241.234 15.4375 241.234 13.1875ZM241.984 76V29.125H255.484V76H241.984ZM280.422 3.8125V76H266.922V3.8125H280.422ZM291.109 13.1875C291.109 10.9375 291.797 9.125 293.172 7.75C294.547 6.375 296.359 5.6875 298.609 5.6875C300.859 5.6875 302.672 6.375 304.047 7.75C305.422 9.125 306.109 10.9375 306.109 13.1875C306.109 15.4375 305.422 17.25 304.047 18.625C302.672 20 300.859 20.6875 298.609 20.6875C296.359 20.6875 294.547 20 293.172 18.625C291.797 17.25 291.109 15.4375 291.109 13.1875ZM291.859 76V29.125H305.359V76H291.859ZM357.906 70C355.625 72.1875 352.891 73.8906 349.703 75.1094C346.547 76.3281 343.109 76.9375 339.391 76.9375C334.422 76.9375 329.984 75.8906 326.078 73.7969C322.203 71.6719 319.141 68.7812 316.891 65.125C314.641 61.4375 313.516 57.25 313.516 52.5625C313.516 47.875 314.641 43.7031 316.891 40.0469C319.141 36.3594 322.203 33.4688 326.078 31.375C329.984 29.25 334.422 28.1875 339.391 28.1875C343.109 28.1875 346.547 28.7969 349.703 30.0156C352.891 31.2344 355.625 32.9375 357.906 35.125L348.391 44.0781C346.141 41.2969 343.141 39.9062 339.391 39.9062C335.953 39.9062 333.109 41.1094 330.859 43.5156C328.609 45.9219 327.484 48.9375 327.484 52.5625C327.484 56.1875 328.609 59.2031 330.859 61.6094C333.109 64.0156 335.953 65.2188 339.391 65.2188C343.141 65.2188 346.141 63.8281 348.391 61.0469L357.906 70ZM363.578 52.5625C363.578 47.875 364.656 43.7031 366.812 40.0469C369 36.3594 371.969 33.4688 375.719 31.375C379.5 29.25 383.797 28.1875 388.609 28.1875C393.422 28.1875 397.703 29.25 401.453 31.375C405.203 33.4688 408.156 36.3594 410.312 40.0469C412.5 43.7031 413.594 47.875 413.594 52.5625C413.594 57.25 412.5 61.4375 410.312 65.125C408.156 68.7812 405.203 71.6719 401.453 73.7969C397.703 75.8906 393.422 76.9375 388.609 76.9375C383.797 76.9375 379.5 75.8906 375.719 73.7969C371.969 71.6719 369 68.7812 366.812 65.125C364.656 61.4375 363.578 57.25 363.578 52.5625ZM376.703 52.5625C376.703 56.1875 377.828 59.2031 380.078 61.6094C382.328 64.0156 385.172 65.2188 388.609 65.2188C392.047 65.2188 394.891 64.0156 397.141 61.6094C399.391 59.2031 400.516 56.1875 400.516 52.5625C400.516 48.9375 399.391 45.9219 397.141 43.5156C394.891 41.1094 392.047 39.9062 388.609 39.9062C385.172 39.9062 382.328 41.1094 380.078 43.5156C377.828 45.9219 376.703 48.9375 376.703 52.5625ZM422.547 76V29.125H434.359L434.922 34.8438C436.766 32.7188 438.969 31.0781 441.531 29.9219C444.125 28.7656 446.969 28.1875 450.062 28.1875C455.531 28.1875 459.891 30 463.141 33.625C466.391 37.2188 468.016 42.2344 468.016 48.6719V76H454.469V51.2969C454.469 43.7031 451.625 39.9062 445.938 39.9062C443 39.9062 440.609 40.9844 438.766 43.1406C436.953 45.2969 436.047 48.3281 436.047 52.2344V76H422.547ZM496.141 5.6875H511.375C513.219 10.1875 514.922 14.2812 516.484 17.9688C518.078 21.625 519.594 25.1719 521.031 28.6094C522.5 32.0469 523.984 35.625 525.484 39.3438C526.984 43.0312 528.547 47.1562 530.172 51.7188C530.609 52.9688 531.016 54.1719 531.391 55.3281C531.766 56.4531 532.109 57.5625 532.422 58.6562C532.734 57.5625 533.078 56.4531 533.453 55.3281C533.828 54.1719 534.234 52.9688 534.672 51.7188C536.328 47.1562 537.891 43.0312 539.359 39.3438C540.859 35.625 542.328 32.0469 543.766 28.6094C545.234 25.1719 546.766 21.625 548.359 17.9688C549.953 14.2812 551.656 10.1875 553.469 5.6875H568.703L539.969 76H524.875L496.141 5.6875ZM567.203 63.1094C567.203 59.9844 568.094 57.1875 569.875 54.7188C571.688 52.25 574.172 50.2969 577.328 48.8594C580.484 47.4219 584.094 46.7031 588.156 46.7031C589.438 46.7031 590.781 46.7812 592.188 46.9375C593.625 47.0938 595.062 47.2969 596.5 47.5469C595.469 42.4531 591.766 39.9062 585.391 39.9062C581.609 39.9062 577.812 41.3281 574 44.1719L569.359 32.7812C572.609 31.2188 575.812 30.0625 578.969 29.3125C582.125 28.5625 585.125 28.1875 587.969 28.1875C592.5 28.1875 596.422 29.0469 599.734 30.7656C603.078 32.4531 605.672 34.8594 607.516 37.9844C609.359 41.0781 610.281 44.7188 610.281 48.9062V76H598.938L598.047 70.9844C596.297 72.8281 594.156 74.2812 591.625 75.3438C589.125 76.4062 586.375 76.9375 583.375 76.9375C578.625 76.9375 574.734 75.6562 571.703 73.0938C568.703 70.5312 567.203 67.2031 567.203 63.1094ZM580.703 60.0156C580.703 61.5781 581.297 62.8438 582.484 63.8125C583.703 64.75 585.297 65.2188 587.266 65.2188C589.953 65.2188 592.203 64.4062 594.016 62.7812C595.859 61.1562 596.781 59.1562 596.781 56.7812V55.8438C595.625 55.4688 594.375 55.1719 593.031 54.9531C591.719 54.7344 590.422 54.625 589.141 54.625C586.484 54.625 584.406 55.0938 582.906 56.0312C581.438 56.9688 580.703 58.2969 580.703 60.0156ZM635.078 3.8125V76H621.578V3.8125H635.078ZM660.766 3.8125V76H647.266V3.8125H660.766ZM682.375 56.5938C683.219 59.1875 684.766 61.2969 687.016 62.9219C689.297 64.5469 691.953 65.3594 694.984 65.3594C698.234 65.3594 700.922 64.8438 703.047 63.8125C705.203 62.75 707.156 61.3906 708.906 59.7344L717.062 69.4844C713.438 72.3281 709.844 74.2812 706.281 75.3438C702.75 76.4062 699.359 76.9375 696.109 76.9375C690.922 76.9375 686.344 75.8906 682.375 73.7969C678.406 71.6719 675.297 68.7656 673.047 65.0781C670.797 61.3594 669.672 57.1406 669.672 52.4219C669.672 47.7656 670.75 43.625 672.906 40C675.062 36.3438 678 33.4688 681.719 31.375C685.469 29.25 689.719 28.1875 694.469 28.1875C699.188 28.1875 703.375 29.2344 707.031 31.3281C710.719 33.4219 713.625 36.2969 715.75 39.9531C717.875 43.6094 718.938 47.7969 718.938 52.5156V56.5938H682.375ZM705.062 49.0938C704.406 46.3438 703.062 44.125 701.031 42.4375C699 40.75 696.562 39.9062 693.719 39.9062C690.844 39.9062 688.344 40.7656 686.219 42.4844C684.125 44.2031 682.75 46.4062 682.094 49.0938H705.062ZM735.906 29.125L746.875 52.0469C747.375 53.0469 747.844 54.1875 748.281 55.4688C748.719 56.75 749.094 58.1562 749.406 59.6875L762.062 29.125H776.312L747.156 99.4375H732.953L743.641 73.6562L721.797 29.125H735.906ZM172.562 180H159.062V133.125H171.812L172.141 138.094C175.453 134.156 179.938 132.188 185.594 132.188C192.812 132.188 197.922 135.266 200.922 141.422C202.484 138.453 204.594 136.172 207.25 134.578C209.906 132.984 213.031 132.188 216.625 132.188C222.312 132.188 226.734 134.188 229.891 138.188C233.047 142.156 234.625 147.688 234.625 154.781V180H221.125V154.781C221.125 151.156 220.266 148.438 218.547 146.625C216.859 144.812 214.812 143.906 212.406 143.906C209.969 143.906 207.891 144.844 206.172 146.719C204.453 148.594 203.594 151.391 203.594 155.109V180H190.094V154.781C190.094 151.156 189.234 148.438 187.516 146.625C185.828 144.812 183.781 143.906 181.375 143.906C178.938 143.906 176.859 144.844 175.141 146.719C173.422 148.594 172.562 151.391 172.562 155.109V180ZM255.297 160.594C256.141 163.188 257.688 165.297 259.938 166.922C262.219 168.547 264.875 169.359 267.906 169.359C271.156 169.359 273.844 168.844 275.969 167.812C278.125 166.75 280.078 165.391 281.828 163.734L289.984 173.484C286.359 176.328 282.766 178.281 279.203 179.344C275.672 180.406 272.281 180.938 269.031 180.938C263.844 180.938 259.266 179.891 255.297 177.797C251.328 175.672 248.219 172.766 245.969 169.078C243.719 165.359 242.594 161.141 242.594 156.422C242.594 151.766 243.672 147.625 245.828 144C247.984 140.344 250.922 137.469 254.641 135.375C258.391 133.25 262.641 132.188 267.391 132.188C272.109 132.188 276.297 133.234 279.953 135.328C283.641 137.422 286.547 140.297 288.672 143.953C290.797 147.609 291.859 151.797 291.859 156.516V160.594H255.297ZM277.984 153.094C277.328 150.344 275.984 148.125 273.953 146.438C271.922 144.75 269.484 143.906 266.641 143.906C263.766 143.906 261.266 144.766 259.141 146.484C257.047 148.203 255.672 150.406 255.016 153.094H277.984ZM310.234 160.594C311.078 163.188 312.625 165.297 314.875 166.922C317.156 168.547 319.812 169.359 322.844 169.359C326.094 169.359 328.781 168.844 330.906 167.812C333.062 166.75 335.016 165.391 336.766 163.734L344.922 173.484C341.297 176.328 337.703 178.281 334.141 179.344C330.609 180.406 327.219 180.938 323.969 180.938C318.781 180.938 314.203 179.891 310.234 177.797C306.266 175.672 303.156 172.766 300.906 169.078C298.656 165.359 297.531 161.141 297.531 156.422C297.531 151.766 298.609 147.625 300.766 144C302.922 140.344 305.859 137.469 309.578 135.375C313.328 133.25 317.578 132.188 322.328 132.188C327.047 132.188 331.234 133.234 334.891 135.328C338.578 137.422 341.484 140.297 343.609 143.953C345.734 147.609 346.797 151.797 346.797 156.516V160.594H310.234ZM332.922 153.094C332.266 150.344 330.922 148.125 328.891 146.438C326.859 144.75 324.422 143.906 321.578 143.906C318.703 143.906 316.203 144.766 314.078 146.484C311.984 148.203 310.609 150.406 309.953 153.094H332.922ZM351.438 133.125H359.172V121.406H372.672V133.125H384.062V144.844H372.672V162.094C372.672 164.312 373.375 166.062 374.781 167.344C376.219 168.594 378.031 169.219 380.219 169.219C381.844 169.219 383.516 168.859 385.234 168.141V179.203C382.266 180.359 379.344 180.938 376.469 180.938C370.906 180.938 366.625 179.453 363.625 176.484C360.656 173.484 359.172 169.203 359.172 163.641V144.844H351.438V133.125ZM392.781 174.047L399.156 163.875C401.844 165.656 404.312 167.078 406.562 168.141C408.844 169.172 410.875 169.688 412.656 169.688C414.031 169.688 415.141 169.375 415.984 168.75C416.828 168.125 417.25 167.328 417.25 166.359C417.25 164.953 416.453 163.812 414.859 162.938C413.297 162.062 411.484 161.203 409.422 160.359C407.234 159.453 405.031 158.438 402.812 157.312C400.625 156.156 398.781 154.672 397.281 152.859C395.812 151.047 395.078 148.703 395.078 145.828C395.078 141.859 396.641 138.594 399.766 136.031C402.922 133.469 407.375 132.188 413.125 132.188C415.938 132.188 418.891 132.547 421.984 133.266C425.109 133.953 427.953 135.078 430.516 136.641L424.562 146.906C423.188 146 421.391 145.203 419.172 144.516C416.984 143.797 415.125 143.438 413.594 143.438C412.719 143.438 411.75 143.625 410.688 144C409.656 144.344 409.141 145.031 409.141 146.062C409.141 147.219 409.859 148.172 411.297 148.922C412.766 149.672 414.5 150.438 416.5 151.219C418.656 152.062 420.875 153.062 423.156 154.219C425.438 155.344 427.359 156.859 428.922 158.766C430.516 160.641 431.312 163.109 431.312 166.172C431.312 169.234 430.469 171.875 428.781 174.094C427.094 176.312 424.844 178.016 422.031 179.203C419.219 180.359 416.109 180.938 412.703 180.938C409.484 180.938 406.141 180.375 402.672 179.25C399.234 178.125 395.938 176.391 392.781 174.047ZM462.25 180V109.688H486.531C495.25 109.688 502.062 111.766 506.969 115.922C511.875 120.047 514.328 125.656 514.328 132.75C514.328 137.469 513.219 141.562 511 145.031C508.781 148.5 505.594 151.188 501.438 153.094C497.312 155 492.344 155.953 486.531 155.953H476.547V180H462.25ZM485.078 121.641H476.547V144.047H485.078C489.891 144.047 493.547 142.984 496.047 140.859C498.547 138.734 499.797 136.047 499.797 132.797C499.797 129.547 498.547 126.875 496.047 124.781C493.547 122.688 489.891 121.641 485.078 121.641ZM521.875 180V109.688H535.375V137.672C539.094 134.016 543.719 132.188 549.25 132.188C561.312 132.188 567.344 139.781 567.344 154.969V180H553.844V154.875C553.844 151.344 553.094 148.641 551.594 146.766C550.125 144.859 548.016 143.906 545.266 143.906C542.328 143.906 539.938 144.938 538.094 147C536.281 149.031 535.375 151.672 535.375 154.922V180H521.875ZM577.094 167.109C577.094 163.984 577.984 161.188 579.766 158.719C581.578 156.25 584.062 154.297 587.219 152.859C590.375 151.422 593.984 150.703 598.047 150.703C599.328 150.703 600.672 150.781 602.078 150.938C603.516 151.094 604.953 151.297 606.391 151.547C605.359 146.453 601.656 143.906 595.281 143.906C591.5 143.906 587.703 145.328 583.891 148.172L579.25 136.781C582.5 135.219 585.703 134.062 588.859 133.312C592.016 132.562 595.016 132.188 597.859 132.188C602.391 132.188 606.312 133.047 609.625 134.766C612.969 136.453 615.562 138.859 617.406 141.984C619.25 145.078 620.172 148.719 620.172 152.906V180H608.828L607.938 174.984C606.188 176.828 604.047 178.281 601.516 179.344C599.016 180.406 596.266 180.938 593.266 180.938C588.516 180.938 584.625 179.656 581.594 177.094C578.594 174.531 577.094 171.203 577.094 167.109ZM590.594 164.016C590.594 165.578 591.188 166.844 592.375 167.812C593.594 168.75 595.188 169.219 597.156 169.219C599.844 169.219 602.094 168.406 603.906 166.781C605.75 165.156 606.672 163.156 606.672 160.781V159.844C605.516 159.469 604.266 159.172 602.922 158.953C601.609 158.734 600.312 158.625 599.031 158.625C596.375 158.625 594.297 159.094 592.797 160.031C591.328 160.969 590.594 162.297 590.594 164.016ZM631.469 180V133.125H643.281L643.938 139.828C647.344 134.734 652.031 132.188 658 132.188C660.031 132.188 662.125 132.5 664.281 133.125L662.406 144.797C660.594 144.203 658.812 143.906 657.062 143.906C653.438 143.906 650.516 145.25 648.297 147.938C646.078 150.594 644.969 154.391 644.969 159.328V180H631.469ZM682.938 180H669.438V133.125H682.188L682.516 138.094C685.828 134.156 690.312 132.188 695.969 132.188C703.188 132.188 708.297 135.266 711.297 141.422C712.859 138.453 714.969 136.172 717.625 134.578C720.281 132.984 723.406 132.188 727 132.188C732.688 132.188 737.109 134.188 740.266 138.188C743.422 142.156 745 147.688 745 154.781V180H731.5V154.781C731.5 151.156 730.641 148.438 728.922 146.625C727.234 144.812 725.188 143.906 722.781 143.906C720.344 143.906 718.266 144.844 716.547 146.719C714.828 148.594 713.969 151.391 713.969 155.109V180H700.469V154.781C700.469 151.156 699.609 148.438 697.891 146.625C696.203 144.812 694.156 143.906 691.75 143.906C689.312 143.906 687.234 144.844 685.516 146.719C683.797 148.594 682.938 151.391 682.938 155.109V180ZM754.75 167.109C754.75 163.984 755.641 161.188 757.422 158.719C759.234 156.25 761.719 154.297 764.875 152.859C768.031 151.422 771.641 150.703 775.703 150.703C776.984 150.703 778.328 150.781 779.734 150.938C781.172 151.094 782.609 151.297 784.047 151.547C783.016 146.453 779.312 143.906 772.938 143.906C769.156 143.906 765.359 145.328 761.547 148.172L756.906 136.781C760.156 135.219 763.359 134.062 766.516 133.312C769.672 132.562 772.672 132.188 775.516 132.188C780.047 132.188 783.969 133.047 787.281 134.766C790.625 136.453 793.219 138.859 795.062 141.984C796.906 145.078 797.828 148.719 797.828 152.906V180H786.484L785.594 174.984C783.844 176.828 781.703 178.281 779.172 179.344C776.672 180.406 773.922 180.938 770.922 180.938C766.172 180.938 762.281 179.656 759.25 177.094C756.25 174.531 754.75 171.203 754.75 167.109ZM768.25 164.016C768.25 165.578 768.844 166.844 770.031 167.812C771.25 168.75 772.844 169.219 774.812 169.219C777.5 169.219 779.75 168.406 781.562 166.781C783.406 165.156 784.328 163.156 784.328 160.781V159.844C783.172 159.469 781.922 159.172 780.578 158.953C779.266 158.734 777.969 158.625 776.688 158.625C774.031 158.625 771.953 159.094 770.453 160.031C768.984 160.969 768.25 162.297 768.25 164.016Z" fill="#1F155B"/>
</mask>
<g mask="url(#mask0)">
<g filter="url(#filter0_f)">
<ellipse cx="478" cy="100" rx="300" ry="300" transform="rotate(90 478 100)" fill="url(#paint0_angular)"/>
</g>
</g>
<defs>
<filter id="filter0_f" x="-72" y="-450" width="1100" height="1100" filterUnits="userSpaceOnUse" color-interpolation-filters="sRGB">
<feFlood flood-opacity="0" result="BackgroundImageFix"/>
<feBlend mode="normal" in="SourceGraphic" in2="BackgroundImageFix" result="shape"/>
<feGaussianBlur stdDeviation="125" result="effect1_foregroundBlur"/>
</filter>
<radialGradient id="paint0_angular" cx="0" cy="0" r="1" gradientUnits="userSpaceOnUse" gradientTransform="translate(478 100) rotate(135) scale(301.227)">
<stop offset="0.380552" stop-color="#40DD7F"/>
<stop offset="0.808325" stop-color="#23C5F9"/>
</radialGradient>
</defs>
</svg>
