<svg width="100" height="100" viewBox="0 0 100 100" fill="none" xmlns="http://www.w3.org/2000/svg">
<path d="M50 50C50 61.0457 58.9543 70 70 70C81.0457 70 100 50 100 50C100 50 81.0457 30 70 30C58.9543 30 50 38.9543 50 50Z" fill="#ECF2F5"/>
<path d="M44 56L56 68" stroke="#AEB8BF" stroke-width="2" stroke-linecap="round"/>
<path d="M56 56L44 68" stroke="#AEB8BF" stroke-width="2" stroke-linecap="round"/>
<ellipse cx="50" cy="28" rx="10" ry="3" stroke="#AEB8BF" stroke-width="2"/>
<path d="M63 46V72C63 74.2091 57.1797 76 50 76C42.8203 76 37 74.2091 37 72V46" stroke="#AEB8BF" stroke-width="2" stroke-linejoin="round"/>
<path d="M58 38C58 42 63 46 63 46C63 48.2091 57.1797 50 50 50C42.8203 50 37 48.2091 37 46C37 46 42 42 42 38" stroke="#AEB8BF" stroke-width="2" stroke-linejoin="round"/>
<path d="M40 28V36C40 37.6569 44.4772 39 50 39C55.5228 39 60 37.6569 60 36V28" stroke="#AEB8BF" stroke-width="2"/>
</svg>
