<svg width="100" height="100" viewBox="0 0 100 100" fill="none" xmlns="http://www.w3.org/2000/svg">
<path d="M0 50C0 50 18.9543 70 30 70C41.0457 70 50 61.0457 50 50C50 38.9543 41.0457 30 30 30C18.9543 30 0 50 0 50Z" fill="#F5F0FD"/>
<path d="M63 46H64C64 45.6962 63.8619 45.4089 63.6247 45.2191L63 46ZM37 46L36.3753 45.2191C36.1381 45.4089 36 45.6962 36 46H37ZM42 55L42.2339 54.0277C41.936 53.9561 41.6217 54.0249 41.3811 54.2145C41.1404 54.4042 41 54.6936 41 55H42ZM58 55H59C59 54.6936 58.8596 54.4042 58.6189 54.2145C58.3783 54.0249 58.064 53.9561 57.7661 54.0277L58 55ZM42 67H41C41 67.4622 41.3167 67.8642 41.7661 67.9723L42 67ZM58 67L58.2339 67.9723C58.6833 67.8642 59 67.4622 59 67H58ZM45.1056 63.5528C44.8586 64.0468 45.0588 64.6474 45.5528 64.8944C46.0468 65.1414 46.6474 64.9412 46.8944 64.4472L45.1056 63.5528ZM48 60L48.8944 59.5528C48.725 59.214 48.3788 59 48 59C47.6212 59 47.275 59.214 47.1056 59.5528L48 60ZM50 64L49.1056 64.4472C49.275 64.786 49.6212 65 50 65C50.3788 65 50.725 64.786 50.8944 64.4472L50 64ZM52 60L52.8944 59.5528C52.725 59.214 52.3788 59 52 59C51.6212 59 51.275 59.214 51.1056 59.5528L52 60ZM53.1056 64.4472C53.3526 64.9412 53.9532 65.1414 54.4472 64.8944C54.9412 64.6474 55.1414 64.0468 54.8944 63.5528L53.1056 64.4472ZM59 28C59 27.9294 59.0434 28.0629 58.6356 28.3521C58.2538 28.6229 57.6365 28.9076 56.7837 29.1635C55.0908 29.6714 52.6921 30 50 30V32C52.8307 32 55.432 31.6571 57.3584 31.0791C58.3152 30.7921 59.1624 30.4304 59.7927 29.9834C60.397 29.5548 61 28.899 61 28H59ZM50 30C47.3079 30 44.9092 29.6714 43.2163 29.1635C42.3635 28.9076 41.7462 28.6229 41.3644 28.3521C40.9566 28.0629 41 27.9294 41 28H39C39 28.899 39.603 29.5548 40.2073 29.9834C40.8376 30.4304 41.6848 30.7921 42.6416 31.0791C44.568 31.6571 47.1693 32 50 32V30ZM41 28C41 28.0706 40.9566 27.9371 41.3644 27.6479C41.7462 27.3771 42.3635 27.0924 43.2163 26.8365C44.9092 26.3286 47.3079 26 50 26V24C47.1693 24 44.568 24.3429 42.6416 24.9209C41.6848 25.2079 40.8376 25.5696 40.2073 26.0166C39.603 26.4452 39 27.101 39 28H41ZM50 26C52.6921 26 55.0908 26.3286 56.7837 26.8365C57.6365 27.0924 58.2538 27.3771 58.6356 27.6479C59.0434 27.9371 59 28.0706 59 28H61C61 27.101 60.397 26.4452 59.7927 26.0166C59.1624 25.5696 58.3152 25.2079 57.3584 24.9209C55.432 24.3429 52.8307 24 50 24V26ZM62 72C62 72.079 61.9452 72.3445 61.3901 72.7483C60.8569 73.1362 60.0211 73.5272 58.8983 73.8726C56.6649 74.5598 53.5187 75 50 75V77C53.661 77 57.0148 76.5447 59.4865 75.7842C60.7162 75.4058 61.7842 74.9349 62.5667 74.3656C63.3273 73.8123 64 73.0255 64 72H62ZM50 75C46.4813 75 43.3351 74.5598 41.1017 73.8726C39.9789 73.5272 39.1431 73.1362 38.6099 72.7483C38.0548 72.3445 38 72.079 38 72H36C36 73.0255 36.6727 73.8123 37.4333 74.3656C38.2158 74.9349 39.2838 75.4058 40.5135 75.7842C42.9852 76.5447 46.339 77 50 77V75ZM64 72V46H62V72H64ZM38 72V46H36V72H38ZM62 46C62 46.079 61.9452 46.3445 61.3901 46.7483C60.8569 47.1362 60.0211 47.5272 58.8983 47.8726C56.6649 48.5598 53.5187 49 50 49V51C53.661 51 57.0148 50.5447 59.4865 49.7842C60.7162 49.4058 61.7842 48.9349 62.5667 48.3656C63.3273 47.8123 64 47.0255 64 46H62ZM50 49C46.4813 49 43.3351 48.5598 41.1017 47.8726C39.9789 47.5272 39.1431 47.1362 38.6099 46.7483C38.0548 46.3445 38 46.079 38 46H36C36 47.0255 36.6727 47.8123 37.4333 48.3656C38.2158 48.9349 39.2838 49.4058 40.5135 49.7842C42.9852 50.5447 46.339 51 50 51V49ZM63 46C63.6247 45.2191 63.6249 45.2193 63.625 45.2194C63.625 45.2194 63.6252 45.2195 63.6252 45.2195C63.6253 45.2196 63.6253 45.2196 63.6253 45.2196C63.6252 45.2195 63.6248 45.2192 63.6241 45.2186C63.6227 45.2175 63.6201 45.2154 63.6164 45.2124C63.6091 45.2064 63.5971 45.1967 63.581 45.1834C63.5487 45.1567 63.4996 45.1156 63.4359 45.0611C63.3087 44.9519 63.124 44.7895 62.9011 44.5814C62.454 44.1642 61.8597 43.5696 61.2682 42.8598C60.0457 41.3928 59 39.628 59 38H57C57 40.372 58.4543 42.6072 59.7318 44.1402C60.3903 44.9304 61.046 45.5858 61.5364 46.0436C61.7823 46.273 61.9882 46.4543 62.1344 46.5796C62.2075 46.6422 62.2657 46.691 62.3067 46.7248C62.3272 46.7418 62.3433 46.755 62.3549 46.7644C62.3606 46.7691 62.3653 46.7728 62.3687 46.7755C62.3704 46.7769 62.3718 46.778 62.3729 46.7789C62.3735 46.7794 62.3739 46.7798 62.3743 46.7801C62.3745 46.7802 62.3748 46.7804 62.3749 46.7805C62.3751 46.7807 62.3753 46.7809 63 46ZM37 46C37.6247 46.7809 37.6249 46.7807 37.6251 46.7805C37.6252 46.7804 37.6255 46.7802 37.6257 46.7801C37.6261 46.7798 37.6265 46.7794 37.6271 46.7789C37.6282 46.778 37.6296 46.7769 37.6313 46.7755C37.6347 46.7728 37.6394 46.7691 37.6451 46.7644C37.6567 46.755 37.6728 46.7418 37.6933 46.7248C37.7343 46.691 37.7925 46.6422 37.8656 46.5796C38.0118 46.4543 38.2177 46.273 38.4636 46.0436C38.954 45.5858 39.6097 44.9304 40.2682 44.1402C41.5457 42.6072 43 40.372 43 38H41C41 39.628 39.9543 41.3928 38.7318 42.8598C38.1403 43.5696 37.546 44.1642 37.0989 44.5814C36.876 44.7895 36.6913 44.9519 36.5641 45.0611C36.5004 45.1156 36.4513 45.1567 36.419 45.1834C36.4029 45.1967 36.3909 45.2064 36.3836 45.2124C36.3799 45.2154 36.3773 45.2175 36.3759 45.2186C36.3752 45.2192 36.3748 45.2195 36.3747 45.2196C36.3747 45.2196 36.3747 45.2196 36.3748 45.2195C36.3748 45.2195 36.375 45.2194 36.375 45.2194C36.3751 45.2193 36.3753 45.2191 37 46ZM50 55.0002C47.0835 55.0002 44.3878 54.5458 42.2339 54.0277L41.7661 55.9723C44.0241 56.5154 46.8824 57.0002 50 57.0002V55.0002ZM57.7661 54.0277C55.6122 54.5458 52.9165 55.0002 50 55.0002V57.0002C53.1176 57.0002 55.9759 56.5154 58.2339 55.9723L57.7661 54.0277ZM41 55V67H43V55H41ZM57 55V67H59V55H57ZM50 67.0002C47.0835 67.0002 44.3878 66.5458 42.2339 66.0277L41.7661 67.9723C44.0241 68.5154 46.8824 69.0002 50 69.0002V67.0002ZM57.7661 66.0277C55.6122 66.5458 52.9165 67.0002 50 67.0002V69.0002C53.1176 69.0002 55.9759 68.5154 58.2339 67.9723L57.7661 66.0277ZM41 36V28H39V36H41ZM50 38C47.3079 38 44.9092 37.6714 43.2163 37.1635C42.3635 36.9076 41.7462 36.6229 41.3644 36.3521C40.9566 36.0629 41 35.9294 41 36H39C39 36.899 39.603 37.5548 40.2073 37.9834C40.8376 38.4304 41.6848 38.7921 42.6416 39.0791C44.568 39.6571 47.1693 40 50 40V38ZM59 36C59 35.9294 59.0434 36.0629 58.6356 36.3521C58.2538 36.6229 57.6365 36.9076 56.7837 37.1635C55.0908 37.6714 52.6921 38 50 38V40C52.8307 40 55.432 39.6571 57.3584 39.0791C58.3152 38.7921 59.1624 38.4304 59.7927 37.9834C60.397 37.5548 61 36.899 61 36H59ZM59 28V36H61V28H59ZM46.8944 64.4472L48.8944 60.4472L47.1056 59.5528L45.1056 63.5528L46.8944 64.4472ZM47.1056 60.4472L49.1056 64.4472L50.8944 63.5528L48.8944 59.5528L47.1056 60.4472ZM50.8944 64.4472L52.8944 60.4472L51.1056 59.5528L49.1056 63.5528L50.8944 64.4472ZM51.1056 60.4472L53.1056 64.4472L54.8944 63.5528L52.8944 59.5528L51.1056 60.4472Z" fill="#4831D2"/>
<path d="M50 15V19" stroke="#4831D2" stroke-width="2" stroke-linecap="round"/>
<path d="M50 83V97" stroke="#4831D2" stroke-width="2" stroke-linecap="round"/>
<path d="M24 34L32 42M17 59H28M32 77L23 84" stroke="#4831D2" stroke-width="2" stroke-linecap="round"/>
<path d="M76 34L68 42M83 59H72M68 77L77 84" stroke="#4831D2" stroke-width="2" stroke-linecap="round"/>
</svg>
