<svg width="184" height="172" viewBox="0 0 184 172" fill="none" xmlns="http://www.w3.org/2000/svg">
<g filter="url(#filter0_bdii)">
<path d="M58.7011 45.9793C69.6209 26.9659 75.0809 17.4592 82.2184 14.2736C88.4435 11.4952 95.5565 11.4952 101.782 14.2736C108.919 17.4592 114.379 26.9659 125.299 45.9793L143.962 78.4757C154.808 97.3596 160.231 106.802 159.404 114.547C158.683 121.302 155.133 127.436 149.633 131.426C143.329 136 132.44 136 110.663 136H73.3366C51.5597 136 40.6713 136 34.3668 131.426C28.8674 127.436 25.3168 121.302 24.5959 114.547C23.7694 106.802 29.1921 97.3596 40.0376 78.4756L58.7011 45.9793Z" fill="#7D6BE9" fill-opacity="0.24"/>
<path d="M59.1347 46.2283C64.5995 36.713 68.6813 29.6069 72.2871 24.4786C75.8945 19.348 78.9796 16.2666 82.4222 14.7302C88.5176 12.0097 95.4824 12.0097 101.578 14.7302C105.02 16.2666 108.105 19.348 111.713 24.4786C115.319 29.6069 119.4 36.7131 124.865 46.2283L143.529 78.7247C148.956 88.1752 153.01 95.2333 155.606 100.897C158.203 106.562 159.306 110.758 158.907 114.494C158.201 121.109 154.724 127.115 149.34 131.021C146.299 133.228 142.111 134.361 135.905 134.93C129.701 135.499 121.562 135.5 110.663 135.5H73.3366C62.4383 135.5 54.2993 135.499 48.0952 134.93C41.8887 134.361 37.7014 133.228 34.6604 131.021C29.2756 127.115 25.7989 121.109 25.093 114.494C24.6944 110.758 25.797 106.562 28.3943 100.897C30.9905 95.2333 35.0436 88.1752 40.4712 78.7246L59.1347 46.2283Z" stroke="white" stroke-opacity="0.08"/>
</g>
<defs>
<filter id="filter0_bdii" x="0.513641" y="0.189819" width="182.973" height="171.81" filterUnits="userSpaceOnUse" color-interpolation-filters="sRGB">
<feFlood flood-opacity="0" result="BackgroundImageFix"/>
<feGaussianBlur in="BackgroundImage" stdDeviation="6"/>
<feComposite in2="SourceAlpha" operator="in" result="effect1_backgroundBlur"/>
<feColorMatrix in="SourceAlpha" type="matrix" values="0 0 0 0 0 0 0 0 0 0 0 0 0 0 0 0 0 0 127 0"/>
<feOffset dy="12"/>
<feGaussianBlur stdDeviation="12"/>
<feColorMatrix type="matrix" values="0 0 0 0 0.121569 0 0 0 0 0.0823529 0 0 0 0 0.356863 0 0 0 0.28 0"/>
<feBlend mode="normal" in2="effect1_backgroundBlur" result="effect2_dropShadow"/>
<feBlend mode="normal" in="SourceGraphic" in2="effect2_dropShadow" result="shape"/>
<feColorMatrix in="SourceAlpha" type="matrix" values="0 0 0 0 0 0 0 0 0 0 0 0 0 0 0 0 0 0 127 0" result="hardAlpha"/>
<feMorphology radius="2" operator="erode" in="SourceAlpha" result="effect3_innerShadow"/>
<feOffset/>
<feGaussianBlur stdDeviation="10"/>
<feComposite in2="hardAlpha" operator="arithmetic" k2="-1" k3="1"/>
<feColorMatrix type="matrix" values="0 0 0 0 0.942017 0 0 0 0 0.930417 0 0 0 0 0.966667 0 0 0 0.2 0"/>
<feBlend mode="normal" in2="shape" result="effect3_innerShadow"/>
<feColorMatrix in="SourceAlpha" type="matrix" values="0 0 0 0 0 0 0 0 0 0 0 0 0 0 0 0 0 0 127 0" result="hardAlpha"/>
<feMorphology radius="2" operator="erode" in="SourceAlpha" result="effect4_innerShadow"/>
<feOffset/>
<feGaussianBlur stdDeviation="6"/>
<feComposite in2="hardAlpha" operator="arithmetic" k2="-1" k3="1"/>
<feColorMatrix type="matrix" values="0 0 0 0 1 0 0 0 0 1 0 0 0 0 1 0 0 0 0.08 0"/>
<feBlend mode="normal" in2="effect3_innerShadow" result="effect4_innerShadow"/>
</filter>
</defs>
</svg>
